<svg width="10" height="7" viewBox="0 0 10 7" fill="none" xmlns="http://www.w3.org/2000/svg">
<path d="M8.53198 0.135799C8.37847 0.0670187 8.20963 0.0232785 8.03511 0.00708013C7.86059 -0.00911822 7.68381 0.00254291 7.51489 0.0413968C7.34597 0.0802507 7.18822 0.145535 7.05066 0.233517C6.9131 0.321498 6.79843 0.430451 6.7132 0.554145L4.23044 4.15181L2.80952 3.00768C2.68615 2.90484 2.53859 2.8228 2.37543 2.76637C2.21227 2.70993 2.03678 2.68023 1.85921 2.67898C1.68164 2.67774 1.50554 2.70499 1.34119 2.75913C1.17683 2.81327 1.02752 2.89323 0.901951 2.99434C0.776384 3.09544 0.677083 3.21567 0.609841 3.34801C0.542598 3.48035 0.508761 3.62214 0.510304 3.76512C0.511847 3.9081 0.54874 4.0494 0.618828 4.18078C0.688916 4.31215 0.790798 4.43098 0.918527 4.53031L3.5932 6.68395C3.84596 6.88801 4.18698 7 4.53869 7L4.72392 6.98923C4.9289 6.96614 5.12442 6.90506 5.2951 6.81079C5.46579 6.71652 5.60697 6.59164 5.70753 6.44598L9.05087 1.60028C9.13622 1.47669 9.19051 1.34077 9.21063 1.20028C9.23075 1.05979 9.21631 0.917494 9.16812 0.781503C9.11994 0.645512 9.03896 0.518495 8.92981 0.407705C8.82066 0.296915 8.68548 0.204521 8.53198 0.135799Z" fill="white"/>
</svg>
