<svg width="22" height="23" viewBox="0 0 22 23" fill="none" xmlns="http://www.w3.org/2000/svg">
<path d="M10.75 7.51614V11.9355L13.8438 15.25M20.0312 11.9355C20.0313 13.2413 19.7912 14.5343 19.3248 15.7407C18.8583 16.9471 18.1747 18.0433 17.3128 18.9666C16.451 19.89 15.4278 20.6224 14.3018 21.1221C13.1757 21.6218 11.9688 21.879 10.75 21.879C9.53117 21.879 8.32427 21.6218 7.19822 21.1221C6.07217 20.6224 5.04901 19.89 4.18716 18.9666C3.32532 18.0433 2.64167 16.9471 2.17524 15.7407C1.70882 14.5343 1.46875 13.2413 1.46875 11.9355C1.46875 9.2983 2.44659 6.76912 4.18716 4.90434C5.92774 3.03956 8.28846 1.99194 10.75 1.99194C13.2115 1.99194 15.5723 3.03956 17.3128 4.90434C19.0534 6.76912 20.0312 9.2983 20.0312 11.9355Z" stroke="black" stroke-width="2" stroke-linecap="round" stroke-linejoin="round"/>
</svg>
