<svg width="23" height="21" viewBox="0 0 23 21" fill="none" xmlns="http://www.w3.org/2000/svg">
<path d="M5.27083 17.1818V19.0909H0V17.1818H5.27083ZM10.5417 15.2727C10.8012 15.2727 11.0258 15.3672 11.2155 15.5561C11.4052 15.745 11.5 15.9688 11.5 16.2273V20.0455C11.5 20.304 11.4052 20.5277 11.2155 20.7166C11.0258 20.9055 10.8012 21 10.5417 21H6.70833C6.44878 21 6.22418 20.9055 6.0345 20.7166C5.84483 20.5277 5.75 20.304 5.75 20.0455V16.2273C5.75 15.9688 5.84483 15.745 6.0345 15.5561C6.22418 15.3672 6.44878 15.2727 6.70833 15.2727H10.5417ZM12.9375 9.54545V11.4545H0V9.54545H12.9375ZM3.35417 1.90909V3.81818H0V1.90909H3.35417ZM23 17.1818V19.0909H11.9792V17.1818H23ZM8.625 0C8.88455 0 9.10916 0.0944602 9.29883 0.283381C9.4885 0.472301 9.58333 0.696023 9.58333 0.954545V4.77273C9.58333 5.03125 9.4885 5.25497 9.29883 5.44389C9.10916 5.63281 8.88455 5.72727 8.625 5.72727H4.79167C4.53212 5.72727 4.30751 5.63281 4.11784 5.44389C3.92817 5.25497 3.83333 5.03125 3.83333 4.77273V0.954545C3.83333 0.696023 3.92817 0.472301 4.11784 0.283381C4.30751 0.0944602 4.53212 0 4.79167 0H8.625ZM18.2083 7.63636C18.4679 7.63636 18.6925 7.73082 18.8822 7.91974C19.0718 8.10866 19.1667 8.33239 19.1667 8.59091V12.4091C19.1667 12.6676 19.0718 12.8913 18.8822 13.0803C18.6925 13.2692 18.4679 13.3636 18.2083 13.3636H14.375C14.1155 13.3636 13.8908 13.2692 13.7012 13.0803C13.5115 12.8913 13.4167 12.6676 13.4167 12.4091V8.59091C13.4167 8.33239 13.5115 8.10866 13.7012 7.91974C13.8908 7.73082 14.1155 7.63636 14.375 7.63636H18.2083ZM23 9.54545V11.4545H19.6458V9.54545H23ZM23 1.90909V3.81818H10.0625V1.90909H23Z" fill="white"/>
</svg>
